<?xml version="1.0" encoding="UTF-8"?>
<svg id="Layer_2" data-name="Layer 2" xmlns="http://www.w3.org/2000/svg" viewBox="0 0 105.49 100.32">
  <defs>
    <style>
      .cls-1 {
        fill: #fff;
        stroke: #231f20;
        stroke-miterlimit: 10;
      }
    </style>
  </defs>
  <g id="Layer_1-2" data-name="Layer 1">
    <path class="cls-1" d="M61.5,14.94l6.69-12.33-1.83,13.91c-1.03,7.84,7.03,13.7,14.17,10.29l12.66-6.04-9.66,10.18c-5.44,5.73-2.36,15.22,5.41,16.66l13.79,2.56-13.79,2.56c-7.77,1.44-10.85,10.92-5.41,16.66l9.66,10.18-12.66-6.04c-7.13-3.4-15.2,2.46-14.17,10.29l1.83,13.91-6.69-12.33c-3.77-6.95-13.74-6.95-17.51,0l-6.69,12.33,1.83-13.91c1.03-7.84-7.03-13.7-14.17-10.29l-12.66,6.04,9.66-10.18c5.44-5.73,2.36-15.22-5.41-16.66l-13.79-2.56,13.79-2.56c7.77-1.44,10.85-10.92,5.41-16.66l-9.66-10.18,12.66,6.04c7.13,3.4,15.2-2.46,14.17-10.29l-1.83-13.91,6.69,12.33c3.77,6.95,13.74,6.95,17.51,0Z"/>
  </g>
</svg>